<svg width="16" height="16" viewBox="0 0 16 16" fill="none" xmlns="http://www.w3.org/2000/svg">
<rect width="16" height="16" fill="url(#paint0_linear_305_4)"/>
<path d="M4.98193 6.06934C5.04053 6.12793 5.06982 6.20996 5.06982 6.31543C5.06982 6.4209 5.06104 6.51465 5.04346 6.59668C5.02881 6.67871 4.99805 6.76074 4.95117 6.84277C4.85742 7.00391 4.67871 7.1709 4.41504 7.34375L2.86816 8.37207L4.41504 9.40039C4.78125 9.65527 4.99072 9.9043 5.04346 10.1475C5.06104 10.2295 5.06982 10.3042 5.06982 10.3716C5.06982 10.5151 5.04053 10.6162 4.98193 10.6748L2.17822 8.74561C2.01416 8.63135 1.93213 8.50684 1.93213 8.37207C1.93213 8.2373 2.01416 8.11279 2.17822 7.99854L4.98193 6.06934ZM6.37061 12.1733C6.11572 12.1733 5.98828 12.0269 5.98828 11.7339C5.98828 11.6167 6.02197 11.46 6.08936 11.2637L8.42725 4.02588C8.47705 3.98779 8.53711 3.96875 8.60742 3.96875C8.8623 3.96875 8.98975 4.11523 8.98975 4.4082C8.98975 4.52539 8.95605 4.68213 8.88867 4.87842L6.55078 12.1162C6.50098 12.1543 6.44092 12.1733 6.37061 12.1733ZM10.0137 6.06934C9.95508 6.12793 9.92578 6.20996 9.92578 6.31543C9.92578 6.4209 9.93311 6.51465 9.94775 6.59668C9.96533 6.67871 9.99756 6.76074 10.0444 6.84277C10.1382 7.00391 10.3169 7.1709 10.5806 7.34375L12.1274 8.37207L10.5806 9.40039C10.2144 9.65527 10.0049 9.9043 9.95215 10.1475C9.93457 10.2295 9.92578 10.3042 9.92578 10.3716C9.92578 10.5151 9.95508 10.6162 10.0137 10.6748L12.8174 8.74561C12.9814 8.63135 13.0635 8.50684 13.0635 8.37207C13.0635 8.2373 12.9814 8.11279 12.8174 7.99854L10.0137 6.06934Z" fill="white"/>
<defs>
<linearGradient id="paint0_linear_305_4" x1="0" y1="0" x2="16" y2="16" gradientUnits="userSpaceOnUse">
<stop stop-color="#357A97"/>
<stop offset="1" stop-color="#3A48C4" stop-opacity="0.38"/>
</linearGradient>
</defs>
</svg>
